<?xml version="1.0" encoding="utf-8"?>
<svg version="1.1" xmlns="http://www.w3.org/2000/svg" xmlns:xlink="http://www.w3.org/1999/xlink"
	 viewBox="280 200 280 310" xml:space="preserve">
<path style="fill:#FAFAFA;" d="M498.308,200.701h-0.016c-5.767,0-148.145,0-154.641,0c-33.115,0-60.057,26.941-60.057,60.056
	c0,200.616-0.316,186.871,0.43,189.647c1.715,31.59,27.955,56.768,59.967,56.768c33.113,0,60.053-26.941,60.053-60.055v-26.079
	h29.92c52.478,0,76.609-66.26,35.75-99.886c8.943,0,29.629,0.176,31.893-0.433c31.588-1.715,56.756-27.956,56.756-59.962
	C558.362,227.642,531.425,200.701,498.308,200.701z M477.626,364.651c0,0.012,0,0.022,0,0.032c0,0.012,0,0.022,0,0.034
	c0,24.11-19.541,43.651-43.65,43.651c-0.004,0-0.008,0-0.012,0c-27.496,0-81.08-0.296-91.383,0
	c-43.236,1.242-46.316,37.274-46.316,37.274V283.726c0,0,3.08,36.032,46.316,37.274c10.639,0.306,34.203,0,91.383,0
	c0.004,0,0.008,0,0.012,0C458.085,321,477.626,340.541,477.626,364.651z"/>
</svg>
